<?xml version="1.0" encoding="UTF-8"?><svg id="Layer_2" xmlns="http://www.w3.org/2000/svg" xmlns:xlink="http://www.w3.org/1999/xlink" viewBox="0 0 444.49 101.42"><defs><style>.cls-1{fill:url(#linear-gradient);}</style><linearGradient id="linear-gradient" x1="222.24" y1="0" x2="222.24" y2="101.42" gradientUnits="userSpaceOnUse"><stop offset="0" stop-color="#ec9c2d"/><stop offset=".16" stop-color="#e6942c"/><stop offset=".38" stop-color="#d6802b"/><stop offset=".66" stop-color="#bb5f29"/><stop offset=".97" stop-color="#973127"/><stop offset="1" stop-color="#942d27"/><stop offset="1" stop-color="#932c26"/><stop offset="1" stop-color="#902526"/><stop offset="1" stop-color="#8f2426"/><stop offset="1" stop-color="#8f2426"/><stop offset="1" stop-color="#8f2426"/></linearGradient></defs><g id="Layer_2-2"><path class="cls-1" d="m77.35,43.66L63.86,2.32h5.77l6.44,20.36c1.78,5.58,3.31,10.61,4.42,15.46h.12c1.17-4.78,2.88-10,4.72-15.4l6.99-20.42h5.7l-14.78,41.34h-5.89ZM110.91,2.32h-5.33v41.34h5.33V2.32Zm40.18,35.76c-2.15,1.04-5.46,1.72-8.71,1.72-10.06,0-15.88-6.5-15.88-16.62,0-10.86,6.44-17.05,16.13-17.05,3.44,0,6.32.73,8.34,1.72l1.29-4.35c-1.41-.74-4.66-1.84-9.81-1.84-12.82,0-21.59,8.77-21.59,21.71s8.77,20.91,20.42,20.91c5.03,0,8.95-.98,10.92-1.96l-1.1-4.23ZM189.54,2.32h-30.6v4.54h12.57v36.8h5.4V6.86h12.63V2.32Zm22.15,42.01c-10.92,0-18.58-8.46-18.58-20.98,0-13.13,8.16-21.71,19.2-21.71s18.58,8.65,18.58,20.91c0,14.23-8.65,21.77-19.2,21.77Zm13.56-21.53c0-8.22-4.29-16.8-13.19-16.8s-13.25,8.16-13.25,17.24,4.78,16.74,13.19,16.74,13.25-7.79,13.25-17.17Zm34.29,10.98c-1.23-5.7-3.43-7.85-8.28-8.03h-5.03v17.91h-5.33V2.88c2.7-.55,6.56-.86,10.24-.86,5.7,0,9.38,1.04,11.96,3.37,2.09,1.84,3.25,4.66,3.25,7.85,0,5.46-3.43,9.08-7.79,10.55v.18c3.19,1.1,5.09,4.05,6.07,8.34,1.35,5.77,2.33,9.75,3.19,11.35h-5.52c-.67-1.17-1.59-4.72-2.76-9.88Zm1.47-19.93c0-5.34-3.86-7.67-9.51-7.73-2.58,0-4.42.25-5.28.49v15.09h5.46c5.7,0,9.32-3.13,9.32-7.85Zm24.48,29.81h5.4v-17.6l13.86-23.74h-6.07l-5.95,11.41c-1.59,3.13-3.01,5.83-4.17,8.53h-.12c-1.29-2.88-2.51-5.4-4.11-8.53l-5.83-11.41h-6.07l13.06,23.8v17.54Zm-222.58,22h11.1v33.49h9.38v-33.49h11.28v-7.85h-31.77v7.85Zm57.29-7.85l12.82,41.34h-10.06l-3.19-10.61h-11.84l-2.94,10.61h-9.69l12.64-41.34h12.27Zm-1.78,23.74l-2.58-8.77c-.74-2.45-1.47-5.52-2.09-7.97h-.12c-.61,2.45-1.23,5.58-1.9,7.97l-2.45,8.77h9.14Zm53.85,5.52c0,3.74-1.72,6.69-4.29,8.77-3.01,2.39-8.04,3.74-16.25,3.74-4.6,0-8.03-.31-10.12-.61v-40.6c2.45-.49,7.42-.86,12.08-.86,5.7,0,9.2.55,12.21,2.33,2.88,1.53,4.97,4.35,4.97,8.1s-2.15,7.11-6.81,8.83v.12c4.72,1.29,8.22,4.85,8.22,10.18Zm-21.4-12.88h3.07c4.91,0,7.54-2.02,7.54-5.09s-2.39-4.78-6.62-4.78c-2.02,0-3.19.12-3.99.25v9.63Zm11.59,12.51c0-4.17-3.74-5.83-8.4-5.83h-3.19v11.65c.92.12,2.02.12,3.62.12,4.23,0,7.97-1.59,7.97-5.95Zm28.65-5.03h15.21v-7.61h-15.21v-8.59h16.13v-7.67h-25.51v41.34h26.37v-7.67h-16.99v-9.81Zm54.28,5.83c1.29,4.66,2.57,10.06,3.37,11.65h-9.57c-.67-1.17-1.65-4.54-2.88-9.63-1.1-5.15-2.88-6.56-6.69-6.62h-2.82v16.25h-9.26v-40.79c3.01-.49,7.48-.86,12.45-.86,6.13,0,10.43.92,13.37,3.25,2.45,1.96,3.8,4.85,3.8,8.65,0,5.27-3.74,8.89-7.3,10.18v.19c2.88,1.17,4.48,3.93,5.52,7.73Zm-7.48-17.3c0-3.8-2.58-5.7-6.87-5.77-2.27,0-3.56.18-4.23.31v11.41h3.68c4.66,0,7.42-2.33,7.42-5.95Zm44.72-.31c0,6.2.18,11.78.8,17.24h-.18c-1.84-4.66-4.29-9.81-6.75-14.17l-8.59-15.15h-10.92v41.34h8.59v-12.45c0-6.75-.12-12.57-.37-18.03l.18-.06c2.02,4.85,4.72,10.18,7.18,14.6l8.83,15.95h9.81v-41.34h-8.59v12.08Zm41.65-12.08l12.82,41.34h-10.06l-3.19-10.61h-11.84l-2.94,10.61h-9.69l12.64-41.34h12.27Zm-1.78,23.74l-2.58-8.77c-.74-2.45-1.47-5.52-2.09-7.97h-.12c-.61,2.45-1.23,5.58-1.9,7.97l-2.45,8.77h9.14Zm42.75-16.68c3.31,0,5.95.74,7.85,1.53l1.9-7.42c-1.66-.86-5.34-1.84-10.18-1.84-12.51,0-22.57,7.85-22.57,21.96,0,11.78,7.36,20.67,21.65,20.67,5.03,0,8.89-.92,10.61-1.78l-1.41-7.3c-1.84.74-4.97,1.35-7.79,1.35-8.34,0-13.25-5.21-13.25-13.49,0-9.2,5.77-13.68,13.19-13.68Zm27.85-7.05h-9.38v41.34h25.82v-7.85h-16.44v-33.49Zm34.41,23.86h15.21v-7.61h-15.21v-8.59h16.13v-7.67h-25.51v41.34h26.37v-7.67h-16.99v-9.81ZM1.9,53.5c.89-1.41,2.3-3.56,4.16-6.1,3.29-4.49,5.19-6.38,8.06-10.01,1.3-1.64,4.73-5.98,7.35-10.72,2.01-3.63,4.43-9.09,5.5-16.35-1.61,1.42-4.07,3.48-7.24,5.72-4.16,2.94-4.92,2.91-7.73,5.15-1.98,1.58-5.94,4.74-8.07,9.19-1.56,3.25-2.3,7.14-2.3,7.14-.02.09-.06.32-.11.64-.17,1.02-.61,3.86-.33,8.79.1,1.71.29,3.93.71,6.54Zm30.22,46.93l.17-.06c9.05-2.82,15.75-11.04,16.35-20.89.04-.72.04-1.43.04-1.43-.09-1.95-.45-3.47-.76-4.49-.11-.41-.22-.72-.41-1.26-.09-.24-.17-.48-.26-.72-.85-2.39-1.56-4.27-1.84-4.99-.28-.72-.93-2.49-1.58-4.51-.09-.3-.19-.59-.28-.89-.17-.61-.37-1.28-.58-2.04-.13-.5-.28-1.02-.43-1.58-.2-.87-.45-1.82-.67-2.82-1.76,3.04-4.43,7.03-8.44,10.96-10.39,10.26-19.94,11.08-22.99,19.94-.45,1.34-1.5,4.6.22,8.09,2.39,4.86,8.48,6.72,9.3,6.96,1.54.45,3.12.67,4.73.71h1.39c1.93-.06,3.78-.35,5.57-.85.17-.06.32-.09.46-.13ZM.3,67.34c-.69,4.66-.13,8.96.95,12.7,1,3.47,2.46,6.45,3.77,8.75.44-1.67,1.2-3.98,2.6-6.49.28-.51,1.44-2.56,3.31-4.74,3.9-4.53,7.15-5.24,13.64-10.21,6.67-5.11,9.96-9.5,11.25-11.34,0,0,1.2-1.75,2.26-3.56,6.72-11.49,5.57-31.48-5.96-52.45h-.02c-.21,13.37-3.98,23.02-7.24,29.23C15.74,46.62,2.52,52.39.3,67.34Zm0,0c-.69,4.66-.13,8.96.95,12.7,1,3.47,2.46,6.45,3.77,8.75.44-1.67,1.2-3.98,2.6-6.49.28-.51,1.44-2.56,3.31-4.74,3.9-4.53,7.15-5.24,13.64-10.21,6.67-5.11,9.96-9.5,11.25-11.34,0,0,1.2-1.75,2.26-3.56,6.72-11.49,5.57-31.48-5.96-52.45h-.02c-.21,13.37-3.98,23.02-7.24,29.23C15.74,46.62,2.52,52.39.3,67.34Z"/></g></svg>